HIERARCHY
ROOT Hips
{
  OFFSET -32.5998 29.0326 120.673
  CHANNELS 6 Xposition Yposition Zposition Zrotation Xrotation Yrotation
  JOINT LeftUpLeg
  {
    OFFSET 8.64259 1.95398 -2.38835
    CHANNELS 3 Zrotation Xrotation Yrotation
    JOINT LeftLeg
    {
      OFFSET 43.7702 0 0
      CHANNELS 3 Zrotation Xrotation Yrotation
      JOINT LeftFoot
      {
        OFFSET 40.6238 0 0
        CHANNELS 3 Zrotation Xrotation Yrotation
        JOINT LeftToeBase
        {
          OFFSET 12.7242 0 0
          CHANNELS 3 Zrotation Xrotation Yrotation
          End Site
          {
            OFFSET 0 0 0
          }
        }
      }
    }
  }
  JOINT RightUpLeg
  {
    OFFSET -8.2249 1.95398 -2.59336
    CHANNELS 3 Zrotation Xrotation Yrotation
    JOINT RightLeg
    {
      OFFSET 43.5653 0 0
      CHANNELS 3 Zrotation Xrotation Yrotation
      JOINT RightFoot
      {
        OFFSET 40.6238 0 0
        CHANNELS 3 Zrotation Xrotation Yrotation
        JOINT RightToeBase
        {
          OFFSET 12.7242 0 0
          CHANNELS 3 Zrotation Xrotation Yrotation
          End Site
          {
            OFFSET 0 0 0
          }
        }
      }
    }
  }
  JOINT Spine
  {
    OFFSET 0.165834 0.87714 6.61349
    CHANNELS 3 Zrotation Xrotation Yrotation
    JOINT Spine1
    {
      OFFSET 7.38963 1.71661e-005 0
      CHANNELS 3 Zrotation Xrotation Yrotation
      JOINT Spine2
      {
        OFFSET 11.9445 1.14441e-005 0
        CHANNELS 3 Zrotation Xrotation Yrotation
        JOINT Spine3
        {
          OFFSET 14.7254 4.19617e-005 0
          CHANNELS 3 Zrotation Xrotation Yrotation
          JOINT Spine4
          {
            OFFSET 10.9679 0 0
            CHANNELS 3 Zrotation Xrotation Yrotation
            JOINT RightShoulder
            {
              OFFSET 2.46616 -1.6653 3.69651
              CHANNELS 3 Zrotation Xrotation Yrotation
              JOINT RightArm
              {
                OFFSET 13.0012 0 0
                CHANNELS 3 Zrotation Xrotation Yrotation
                JOINT RightForeArm
                {
                  OFFSET 28.7848 1.62311e-005 0
                  CHANNELS 3 Zrotation Xrotation Yrotation
                  JOINT RightHand
                  {
                    OFFSET 26.5688 1.62095e-005 0
                    CHANNELS 3 Zrotation Xrotation Yrotation
                    End Site
                    {
                      OFFSET 0 0 0
                    }
                  }
                }
              }
            }
            JOINT LeftShoulder
            {
              OFFSET 2.38034 -1.29275 -3.7523
              CHANNELS 3 Zrotation Xrotation Yrotation
              JOINT LeftArm
              {
                OFFSET 16.3182 6.07031e-005 0
                CHANNELS 3 Zrotation Xrotation Yrotation
                JOINT LeftForeArm
                {
                  OFFSET 27.0901 0 0
                  CHANNELS 3 Zrotation Xrotation Yrotation
                  JOINT LeftHand
                  {
                    OFFSET 24.5451 1.51738e-005 0
                    CHANNELS 3 Zrotation Xrotation Yrotation
                    End Site
                    {
                      OFFSET 0 0 0
                    }
                  }
                }
              }
            }
            JOINT Neck
            {
              OFFSET 5.0226 -0.0266342 0
              CHANNELS 3 Zrotation Xrotation Yrotation
              JOINT Head
              {
                OFFSET 6.69364 2.86102e-005 0
                CHANNELS 3 Zrotation Xrotation Yrotation
                End Site
                {
                  OFFSET 0 0 0
                }
              }
            }
          }
        }
      }
    }
  }
}
MOTION
Frames:	9
Frame Time:	0.0416667
45.267 99.2045 -56.3452 99.5014 27.7302 76.949 -175.456 28.1714 82.7175 -25.6817 -1.67473 -2.37777 78.5391 12.4085 -0.00866385 17.6387 -7.38084 4.8356 168.753 -10.8468 84.9745 -25.0909 -7.53483 -0.773296 75.0694 -8.70668 -2.61328 29.2338 -0.701312 2.0314 2.33422 8.36854 -89.4676 10.1293 4.894 0.640989 -1.53252 4.91746 0.424453 -24.131 4.47467 2.08499 -4.11832 4.47467 2.08499 93.7067 -17.2532 -103.712 27.62 -19.9248 -38.741 -19.209 -15.7501 -33.8831 -11.965 -0.111461 -4.30534 -85.5106 -40.7745 84.0561 -44.9612 4.29547 37.3403 2.08804 -22.363 -18.059 -4.53855 -0.116359 -3.85668 -7.84466 4.79424 21.9629 -7.40574 3.34381 -3.33849 
57.4419 92.9341 -68.3394 97.6569 27.0964 80.6376 -174.811 30.6126 84.3364 -24.1588 -2.18881 -3.01154 71.4632 5.7782 -4.48384 18.9457 -8.90018 8.73595 164.482 -23.6163 81.417 -20.0997 -9.35014 -0.745542 80.9991 -13.5784 -4.03583 41.5911 -5.65302 -0.0700624 2.26117 8.03214 -89.8552 10.8135 4.56932 -0.12659 -0.849548 4.55927 -0.327995 -23.4454 4.39572 1.25526 -3.43278 4.39573 1.25526 92.48 -18.6676 -106.057 32.9038 -19.0777 -35.2271 -22.4581 -21.8144 -34.3573 -13.7727 -0.370891 -2.26277 -85.4095 -51.7433 85.8338 -33.6404 12.968 26.2223 4.12958 -25.2648 -2.27239 0.0368153 0.0776625 -1.55969 -5.20691 6.55724 24.4276 -9.45929 4.31422 -1.8918 
71.6286 91.7297 -81.0558 96.5655 30.8677 76.9333 -171.027 32.9056 77.7654 -40.4262 7.63703 -6.69046 64.8249 0.947484 -0.51799 6.67374 -10.9245 1.54462 162.906 -19.893 75.2972 -37.2231 -9.85313 -4.18616 62.4649 -0.575561 -1.71957 48.342 -8.67066 3.34884 1.84628 7.60463 -88.9135 11.6352 4.1817 1.73079 -0.0299672 4.25384 1.54479 -22.5958 3.46825 2.90835 -2.58317 3.46826 2.90835 92.0975 -22.7582 -105.2 43.5758 -24.1569 -19.189 -14.2628 -16.5459 -25.5315 -12.4879 -0.217031 -3.26688 -85.8375 -51.4496 85.1834 -27.1794 11.8427 9.95818 4.56403 -37.8396 0.00770611 4.83349 0.431269 0.991673 -2.20634 6.70617 16.8558 -12.9762 4.88513 -2.95593 
83.4208 92.0354 -91.4296 101.027 35.0265 72.7011 -171.363 22.8762 74.1221 -49.8753 11.6547 -6.09597 78.2676 10.8037 2.30529 6.06801 -12.718 3.66501 172.163 -3.81283 84.6564 -82.9527 -24.1116 -7.61764 58.3719 2.17726 -0.39561 18.7283 2.2141 6.95329 1.04212 7.88709 -88.5765 11.0604 2.73483 2.57261 -0.60989 2.84536 2.44977 -23.137 1.83567 3.27517 -3.12438 1.83568 3.27516 92.1931 -24.2486 -104.4 51.0758 -23.2839 -2.456 -10.7565 -17.1126 -19.9669 -6.43554 0.0463229 -6.6286 -86.7961 -51.0394 83.6994 -19.8562 15.1101 -13.0049 5.08548 -28.9876 -2.55932 -3.17234 -0.101952 -7.57091 0.16362 4.37418 5.25979 -11.4008 3.87554 -4.40578 
92.987 98.5549 -99.9463 101.547 33.2582 78.847 -171.887 6.57238 80.6487 -36.976 13.8085 -5.35659 72.9926 8.15006 2.27967 13.008 -8.9988 3.38571 -176.919 24.2767 82.1413 -93.7582 -5.73542 -5.95865 66.5226 -2.43642 -3.87408 19.3333 2.16343 6.38662 0.541859 7.99046 -89.3141 10.9029 1.39599 1.2159 -0.767898 1.44815 1.15329 -23.3021 0.966076 1.57917 -3.28942 0.966064 1.57917 92.0027 -25.355 -104.387 47.7171 -14.0402 2.1549 -5.09221 -18.2931 -4.89155 -15.7811 -0.715949 -0.282614 -86.701 -50.1912 83.7112 -13.0368 6.94038 -30.7948 9.73626 -6.1536 -16.9325 1.48833 -0.11774 -4.94206 -6.28474 4.09328 -0.258447 -9.80497 4.55965 -7.33986 
102.694 106.883 -109.016 106.068 40.2188 81.8413 -174.784 -3.91916 86.8576 -27.0499 17.8553 0.449251 54.3031 -4.26863 -1.05758 10.2306 -10.6093 3.73067 -178.069 31.632 91.589 -80.2813 -1.19654 -5.05607 72.8256 -6.12382 -3.97589 19.3103 2.90004 4.23536 -0.384456 8.36301 -90.4942 10.1492 -0.991544 -0.900816 -1.52171 -1.03022 -0.85631 -24.056 -0.675002 -1.15714 -4.04337 -0.674997 -1.15714 90.7911 -25.2496 -107.031 44.7753 -11.5908 11.047 -4.93919 -7.72841 -4.80492 -16.3117 -0.494129 -1.77832 -86.9106 -43.6563 82.25 -18.0375 0.955681 -43.0897 9.2244 -8.82354 -24.0844 2.17414 -0.266755 -8.7533 -16.0812 3.20171 -2.79449 -6.95377 3.37304 -4.85779 
112.722 109.097 -117.747 106.006 48.5666 84.0393 -171.872 -7.94656 91.5786 -20.336 17.7412 -0.573088 56.0913 -2.80496 -3.39788 14.2939 -10.1319 6.52889 -177.925 34.841 92.9903 -65.5804 -7.94812 -4.55386 73.4279 -7.0687 -4.07013 19.8844 2.5575 4.5341 -0.759722 8.34149 -91.164 10.1673 -2.04479 -2.13828 -1.50361 -2.13688 -2.04625 -24.0309 -1.30785 -2.6537 -4.01825 -1.30787 -2.65372 90.5876 -25.9813 -107.158 47.0413 -14.0917 18.7656 -3.9374 -7.73897 -7.30238 -11.3496 0.140044 -6.8741 -87.1476 -37.606 80.6321 -25.3907 -2.37846 -57.2883 10.5711 -6.43445 -32.9103 -0.888529 -0.20021 -12.8252 -16.9118 0.895065 -10.2041 -6.77904 0.891611 -2.50021 
123.196 105.023 -126.569 105.347 56.307 86.5537 -170.285 -10.26 94.836 -16.4264 7.52522 0.208159 67.1177 3.90241 -2.95836 16.0809 -11.4237 10.3375 179.372 33.6447 95.0686 -46.9642 -7.56401 -1.60419 71.4832 -6.22452 -2.59993 22.1931 1.99374 3.20014 -1.25847 8.24394 -91.5952 10.3363 -3.23702 -2.88804 -1.33353 -3.36093 -2.7428 -23.8604 -2.22006 -3.72673 -3.84779 -2.22004 -3.72673 91.7152 -25.3401 -105.017 50.0142 -13.581 21.7305 -4.51668 -9.29852 -8.76393 -8.86704 0.0985907 -6.8128 -87.3295 -33.9439 79.4613 -33.7815 -7.32283 -68.7745 9.95527 -6.00558 -39.027 2.00312 -0.391772 -12.1968 -13.5034 -1.06002 -15.6283 -8.66489 -0.623639 -2.06908 
135.315 97.6587 -137.05 105.574 59.3354 86.2848 -164.555 -24.0024 100.967 -12.5894 9.70017 0.584507 82.3523 14.967 1.24349 30.3549 -4.84155 13.3201 177.469 29.0433 97.0015 -29.5464 -9.43671 1.30803 72.064 -7.55555 -2.39336 27.221 0.523113 0.751744 -1.29878 8.064 -91.545 10.7021 -3.29857 -2.78066 -0.967368 -3.41769 -2.63281 -23.4975 -2.31098 -3.6429 -3.48489 -2.31099 -3.64291 93.1753 -28.9043 -100.785 46.9977 -11.7831 20.4605 -5.19204 -7.39346 -8.10399 -6.64302 0.0857207 -8.01146 -87.7274 -35.8352 79.1882 -35.2615 -4.28408 -71.9465 10.2101 -4.56242 -46.2508 2.89938 -0.400136 -11.2525 -10.8531 -2.97266 -18.557 -9.39776 -1.99437 -2.968 
